# xmcd CD database file
# Copyright (C) 1993-1996 Ti Kan
#
# Track frame offsets:
# 150
# 11905
# 23660
# 35232
# 46147
# 58367
# 70655
# 84465
# 98482
# 110565
# 123942
# 137540
# 151140
# 164755
# 177470
# 191302
# 202855
# 213640
# 225842
# 239367
# 251235
# 261460
# 272445
# 283872
# 297837
# 310340
#
# Disc length: 4299 seconds
#
# Revision: 0
# Processed by: cddbd v1.4b41PL1 Copyright (c) Steve Scherf et al.
# Submitted via: inCDius 1.1b5
#
DISCID=7910c91a
DTITLE=Ray Price - Ray Price And The Cherokee Cowboys Disc1
DYEAR=1900
DGENRE=
TTITLE0=Jealous Lies
TTITLE1=Your Wedding Corsage
TTITLE2=If You're Ever Lonely Darling
TTITLE3=I Saw My Castles Fall Today
TTITLE4=You've Got My Troubles Now
TTITLE5=I Get The Short End Every Time
TTITLE6=Hey La La
TTITLE7=The Answer To The Last Letter'
TTITLE8=Till Death Do Us Part
TTITLE9=Beyond The Last Mile
TTITLE10=Heartaching Blues
TTITLE11=Weary Blues (From Waiting)
TTITLE12=I Made A Mistake And I'm Sorry
TTITLE13=We Crossed Our Heart
TTITLE14=Your Heart Is Too Crowded
TTITLE15=I Lost The Only Love I Knew
TTITLE16=I've Got To Hurry, Hurry, Hurry
TTITLE17=Talk To Your Heart
TTITLE18=I Know I'll NeverWin Your Love Again
TTITLE19=The Road Of No Return
TTITLE20=You're Under Arrest (For Stealing My Heart)
TTITLE21=Move On In And Stay
TTITLE22=I Can't Escape From You
TTITLE23=Won't You Please Be Mine
TTITLE24=Don't Let The Stars Get In Your Eyes
TTITLE25=My Old Scrapbook
EXTD=
EXTT0=
EXTT1=
EXTT2=
EXTT3=
EXTT4=
EXTT5=
EXTT6=
EXTT7=
EXTT8=
EXTT9=
EXTT10=
EXTT11=
EXTT12=
EXTT13=
EXTT14=
EXTT15=
EXTT16=
EXTT17=
EXTT18=
EXTT19=
EXTT20=
EXTT21=
EXTT22=
EXTT23=
EXTT24=
EXTT25=
PLAYORDER=
